<?xml version="1.0" encoding="UTF-8"?>
<svg version="1.1" viewBox="0 0 1024.4 110.21" xmlns="http://www.w3.org/2000/svg" xmlns:xlink="http://www.w3.org/1999/xlink">
 <defs>
  <linearGradient id="linearGradient4328" x1="200.6" x2="290.09" y1="351.41" y2="506.19" gradientTransform="matrix(1.0667 0 0 1.0667 383.44 -180.95)" gradientUnits="userSpaceOnUse">
   <stop stop-color="#699ad7" offset="0"/>
   <stop stop-color="#7eb1dd" offset=".24345"/>
   <stop stop-color="#7ebae4" offset="1"/>
  </linearGradient>
 </defs>
 <path d="m0 0h1024.4v110.21h-1024.4z" fill="#0f687e"/>
 <g fill="#fff">
  <path d="m1007.625 18.003.986-1.187c.552.47 1.256.799 1.89.799.716 0 1.068-.282 1.068-.74 0-.482-.434-.634-1.104-.917l-.998-.423c-.787-.318-1.538-.976-1.538-2.092 0-1.27 1.127-2.28 2.724-2.28.88 0 1.808.352 2.465 1.01l-.88 1.093c-.505-.388-.974-.611-1.585-.611-.599 0-.975.258-.975.693 0 .47.505.634 1.162.905l.986.399c.928.376 1.515.999 1.515 2.08 0 1.269-1.057 2.374-2.888 2.374-.998 0-2.054-.376-2.829-1.105"/>
  <path d="m1001.25 15.182c0-2.538 1.678-4.018 3.616-4.018.986 0 1.784.47 2.3.999l-.915 1.104c-.387-.353-.798-.611-1.35-.611-1.045 0-1.878.928-1.878 2.468 0 1.575.727 2.491 1.854 2.491.622 0 1.115-.317 1.491-.717l.916 1.081c-.634.74-1.48 1.128-2.477 1.128-1.937 0-3.557-1.352-3.557-3.925"/>
  <path d="m998.08 11.304h1.726v7.662h-1.726z"/>
  <path d="m993.654 14.994c.951 0 1.409-.423 1.409-1.222s-.517-1.093-1.456-1.093h-.798v2.315h.846zm-2.57-3.69h2.629c1.679 0 3.04.611 3.04 2.468 0 1.798-1.373 2.597-2.993 2.597h-.951v2.597h-1.725s0-7.662 0-7.662z"/>
  <path d="m984.65 11.304v7.662h4.907v-1.457h-3.182v-1.763h2.606v-1.445h-2.606v-1.54h3.064v-1.457z"/>
  <path d="m1008.1 20.272v4.506h-1.543v-4.506h-5.247v4.506h-1.54v-4.506h-15.114v6.041h5.247v-4.507h1.543v4.507h5.247v-4.507h1.543v4.507h15.111v-6.041z"/>
  <path d="m34.974 71.728v-4.875h6.204v4.875zm0-7.533v-6.204h6.204v6.204zm0-8.864v-11.965h6.204v11.965s-6.204 0-6.204 0zm11.079 16.397v-11.965h6.204v11.965zm0-14.624v-6.204h6.204v6.204zm0-8.863v-4.875h6.204v4.875zm11.079 23.487v-2.659h6.204v2.659zm0-5.761v-6.204h6.204v6.204zm0-8.863v-13.738h6.204v13.738z"/>
  <path d="m70.275 82.753 9.369 9.369c-.265.13-.518.294-.738.514-1.074 1.073-1.074 2.814 0 3.889l13.683 13.684h18.058l-22.713-22.713c-1.074-1.074-2.814-1.074-3.889 0-.22.22-.383.472-.513.737l-9.334-9.335c11.243-13.05 10.565-32.831-1.898-45.067-12.984-12.745-33.915-12.555-46.664.432-6.174 6.289-9.529 14.607-9.448 23.42.082 8.813 3.591 17.067 9.88 23.242 12.093 11.87 31.377 12.479 44.208 1.828zm-40.714-44.638c5.376-5.476 12.498-8.222 19.626-8.222 6.955 0 13.916 2.616 19.26 7.862 10.819 10.621 10.981 28.065.359 38.884-.027.028-.055.058-.081.087l-.278.272c-10.621 10.428-27.904 10.428-38.525 0-5.241-5.145-8.165-12.022-8.233-19.367-.067-7.345 2.729-14.276 7.873-19.517z"/>
  <path d="m117.47 66.323c0 0.90667 0.0533 0.96 0.74666 0.96 1.2267 0 2.2933-0.16 3.8933-0.16 1.6 0 3.68 0.16 4.9067 0.16 0.53333 0 0.58666-0.10667 0.58666-0.90667 0-0.64 0-0.69333-0.58666-0.69333h-4.16c-0.0533 0-0.0533-0.05333-0.0533-0.16 0-1.1733 2.9333-8.5867 4.32-12.107 0.26667-0.69333 0.21334-0.96 1.2267-0.96h10.72c0.8 0 0.74667 0.05333 1.0667 1.0133 1.0667 2.9867 3.7333 10.773 3.7333 12.053 0 0.10667 0 0.16-0.0533 0.16h-2.88c-0.85333 0-0.96 0-0.96 0.64 0 0.90667 0.0533 0.96 0.74667 0.96 1.2267 0 4.32-0.16 5.92-0.16s4 0.16 4.8 0.16c0.53333 0 0.58667-0.10667 0.58667-0.90667 0-0.64 0-0.69333-0.58667-0.69333h-1.7067c-0.64 0-4.3733-10.773-6.56-16.853l-6.4-17.973c-0.0533-0.21333-0.21333-0.37333-0.48-0.37333-0.32 0-0.69333 0.69333-1.0133 1.44-0.58667 1.44-1.4933 1.92-1.92 2.9867l-5.6533 13.12c-0.74667 1.7067-7.2 17.653-7.7867 17.653h-1.4933c-0.85334 0-0.96 0-0.96 0.64zm10.72-15.467c0-0.16 0.10667-0.42667 0.26667-0.8l5.2267-12.8c0.26667-0.64 0.42667-1.0133 0.53333-1.0133 0.10667 0 0.21334 0.32 0.42667 1.0133l4.4267 12.96c0.10667 0.32 0.21334 0.53333 0.21334 0.69333s-0.16 0.26667-0.69334 0.26667h-9.5467c-0.64 0-0.85333-0.10667-0.85333-0.32zm26.24-2.56c0 0.16 0 0.21333 0.16 0.21333 0.21334 0 3.2533-0.10667 3.4133-0.10667s0.37334 5.3867 0.37334 10.08c0 3.84-0.0533 7.3067-0.48 7.3067h-2.2933c-0.53334 0-0.64 0.21333-0.64 0.69333 0 0.58667 0 0.74667 0.69333 0.74667 1.6 0 3.2533-0.10667 4.5867-0.10667 1.5467 0 4.64 0.10667 5.6533 0.10667 0.69334 0 0.69334-0.26667 0.69334-0.74667s-0.0533-0.69333-0.69334-0.69333h-3.36c-0.64 0-0.64-3.1467-0.64-5.9733 0-4.5333 0.37333-10.88 3.04-10.88 1.0667 0 1.9733 1.6533 3.2 1.6533 0.85333 0 1.9733-1.6 1.9733-2.1867 0-0.64-1.44-2.2933-3.04-2.2933-1.6 0-3.7333 1.6533-4.96 4.5333-0.21333 0.48-0.37333 1.3333-0.48 1.3333-0.0533 0-0.0533-0.26667-0.0533-0.96 0-1.0133 0.0533-2.4 0.0533-3.4133 0-0.53333 0.21333-0.53333-0.64-0.53333-0.37333 0-4.8533 0.10667-5.6 0.16-0.74666 0.05333-0.64 0-0.8 0.42667-0.10666 0.26667-0.16 0.48-0.16 0.64zm18.08 9.3867c0 6.0267 3.84 9.9733 10.08 9.9733 5.28 0 8.4267-3.2 8.4267-3.52s-0.16-0.42667-0.37333-0.42667c-0.42667 0-2.7733 1.6-6.4533 1.6-5.4933 0-8.2133-4.48-8.2133-8.96 0-4.2133 2.6667-9.0667 7.2-9.0667 3.36 0 3.52 2.4533 4.3733 4.8533 0.16 0.48 0.48 0.58667 0.90666 0.58667 0.48 0 1.12-0.32 1.6-0.69333 0.42667-0.32 0.53334-0.64 0.53334-1.0667 0-2.72-3.6267-5.12-7.0933-5.12-5.1733 0-10.987 3.9467-10.987 11.84zm20.64-24.693c0 0.26667 0 0.58667 0.21334 0.58667 0.21333 0 3.0933-0.37333 3.2533-0.37333 0.32 0 0.26666 0.21333 0.32 0.90667 0.21333 4.1067 0.42666 12.693 0.42666 18.987 0 3.84 0 6.72-0.0533 11.733 0 0.8 0 0.96-0.53333 0.96h-2.08c-0.53333 0-0.64 0.21333-0.64 0.69333 0 0.58667 0 0.74667 0.69333 0.74667 1.6 0 3.2533-0.10667 4.5867-0.10667 1.5467 0 3.4133 0.10667 4.4267 0.10667 0.69333 0 0.69333-0.26667 0.69333-0.74667s-0.0533-0.69333-0.69333-0.69333h-2.0267c-0.53333 0-0.53333 0-0.58666-0.96-0.0533-1.3867-0.0533-3.9467-0.0533-6.1333l-0.0533-8c0-0.21333 0.10667-0.42667 0.85333-0.8 1.0667-0.53333 2.6133-1.12 4.7467-1.12 3.6267 0 5.12 3.2 5.12 7.04 0 5.6533-0.0533 8.32-0.10666 9.3867-0.0533 0.58667-0.0533 0.58667-0.58667 0.58667h-2.08c-0.53333 0-0.69333 0.21333-0.69333 0.69333 0 0.58667 0 0.74667 0.69333 0.74667 1.6 0 3.2533-0.10667 4.5867-0.10667 1.5467 0 2.7733 0.10667 3.7867 0.10667 0.69333 0 0.74667-0.26667 0.74667-0.74667s-0.10667-0.69333-0.74667-0.69333h-1.3867c-0.53334 0-0.58667-0.05333-0.58667-0.64v-7.6267c0-5.76-0.69333-10.933-6.6667-10.933-2.24 0-5.44 1.2267-7.0933 2.1333-0.53334 0.32-0.58667 0.42667-0.58667-0.48 0-4.6933 0.21333-11.627 0.42667-16.053 0-0.53333 0.0533-1.0667-0.26667-1.0667-0.32 0-5.3333 0.64-7.7867 0.96-0.21333 0.05333-0.26667 0.48-0.26667 0.90667zm27.627 15.093c0 0.16 0.0533 0.21333 0.21334 0.21333 0.21333 0 2.5067-0.10667 2.6667-0.10667 0.53333 0 0.64 0.05333 0.69333 0.85333 0.16 3.8933 0.21334 7.68 0.21334 11.413 0 1.6 0 3.1467-0.0533 4.6933 0 0.53333 0 0.64-0.58666 0.64h-2.1867c-0.69333 0-0.74666 0.21333-0.74666 0.69333 0 0.58667 0 0.74667 0.58666 0.74667 1.0133 0 3.4133-0.10667 4.7467-0.10667 1.3333 0 3.4667 0.10667 4.48 0.10667 0.58667 0 0.58667-0.26667 0.58667-0.74667s-0.0533-0.69333-0.58667-0.69333h-1.92c-0.53333 0-0.53333-0.16-0.53333-0.64-0.16-3.04-0.16-6.0267-0.16-9.0667v-9.0667c0-0.26667-0.0533-0.32-0.37333-0.32-0.26667 0-5.0133 0.21333-6.0267 0.26667-0.63999 0.05333-0.58666 0-0.79999 0.42667-0.21334 0.42667-0.21334 0.53333-0.21334 0.69333zm2.7733-10.453c0 1.4933 1.0667 2.1867 2.1867 2.1867 1.4933 0 3.2533-1.1733 3.2533-2.9867 0-1.5467-1.12-2.1333-2.24-2.1333-1.28 0-3.2 1.0133-3.2 2.9333zm10.507 9.8667c0 0.48 0.0533 0.69333 0.69334 0.69333h0.48c0.8 0 0.85333 0 1.1733 0.8 2.1333 5.5467 5.2267 14.133 5.8133 15.947 0.37333 1.12 0.90666 3.52 1.6 3.52 0.16 0 0.37333-0.10667 0.58666-0.37333 1.3867-2.08 1.76-1.9733 2.6133-3.7333 2.4-5.0133 5.6-13.493 6.7733-15.627 0.26666-0.42667 0.26666-0.53333 0.69333-0.53333h0.85333c0.53333 0 0.64-0.21333 0.64-0.69333 0-0.58667-0.0533-0.74667-0.58667-0.74667-0.8 0-1.5467 0.10667-2.72 0.10667-1.0667 0-2.6133-0.10667-3.04-0.10667-0.69334 0-0.74667 0.26667-0.74667 0.74667 0 0.48 0.0533 0.69333 0.69333 0.69333h1.3867c0.37333 0 0.53333 0.32 0.53333 0.85333 0 1.76-3.7333 10.667-5.0133 13.707-0.21333 0.53333-0.32 0.85333-0.48 0.85333-0.10666 0-0.32-0.21333-0.64-0.96-1.5467-3.6267-5.0133-13.813-5.0133-14.027 0-0.37333 0.42667-0.42667 0.96-0.42667h1.6c0.53333 0 0.64-0.21333 0.64-0.69333 0-0.58667 0-0.74667-0.69333-0.74667-0.96 0-3.2 0.10667-4.5333 0.10667-1.5467 0-2.56-0.10667-3.5733-0.10667-0.69334 0-0.69334 0.26667-0.69334 0.74667zm23.253 9.92c0 6.24 3.6267 10.507 10.187 10.507 5.3867 0 9.2267-4.6933 9.2267-5.0133 0-0.16-0.69334-0.8-0.85334-0.8s-2.6133 3.4667-6.88 3.4667c-4 0-7.9467-3.0933-7.9467-8.8 0-0.74667 0-1.92 0.26667-1.92 0.42667 0 11.36 0.26667 11.947 0.26667 0.64 0 2.88-0.21333 2.88-0.64 0-4.48-2.6667-8.48-7.9467-8.48-6.4533 0-10.88 5.0133-10.88 11.413zm4-3.8933c0.21333-2.6667 2.72-6.3467 6.24-6.3467 1.7067 0 4.9067 1.12 4.9067 6.3467 0 0.10667-0.16 0.16-2.1333 0.21333-2.6667 0.10667-8.1067 0.21333-8.3733 0.21333-0.42667 0-0.64-0.10667-0.64-0.42667zm18.347-5.2267c0 0.16 0 0.21333 0.16 0.21333 0.21333 0 3.2533-0.10667 3.4133-0.10667s0.37333 5.3867 0.37333 10.08c0 3.84-0.0533 7.3067-0.48 7.3067h-2.2933c-0.53333 0-0.64 0.21333-0.64 0.69333 0 0.58667 0 0.74667 0.69333 0.74667 1.6 0 3.2533-0.10667 4.5867-0.10667 1.5467 0 4.64 0.10667 5.6533 0.10667 0.69333 0 0.69333-0.26667 0.69333-0.74667s-0.0533-0.69333-0.69333-0.69333h-3.36c-0.64 0-0.64-3.1467-0.64-5.9733 0-4.5333 0.37333-10.88 3.04-10.88 1.0667 0 1.9733 1.6533 3.2 1.6533 0.85333 0 1.9733-1.6 1.9733-2.1867 0-0.64-1.44-2.2933-3.04-2.2933s-3.7333 1.6533-4.96 4.5333c-0.21333 0.48-0.37333 1.3333-0.48 1.3333-0.0533 0-0.0533-0.26667-0.0533-0.96 0-1.0133 0.0533-2.4 0.0533-3.4133 0-0.53333 0.21334-0.53333-0.64-0.53333-0.37333 0-4.8533 0.10667-5.6 0.16-0.74667 0.05333-0.64 0-0.8 0.42667-0.10667 0.26667-0.16 0.48-0.16 0.64zm28.48 18.027c0 0.90667 0.0533 0.96 0.74667 0.96 1.2267 0 2.2933-0.16 3.8933-0.16s3.68 0.16 4.9067 0.16c0.53333 0 0.58667-0.10667 0.58667-0.90667 0-0.64 0-0.69333-0.58667-0.69333h-4.16c-0.0533 0-0.0533-0.05333-0.0533-0.16 0-1.1733 2.9333-8.5867 4.32-12.107 0.26666-0.69333 0.21333-0.96 1.2267-0.96h10.72c0.8 0 0.74666 0.05333 1.0667 1.0133 1.0667 2.9867 3.7333 10.773 3.7333 12.053 0 0.10667 0 0.16-0.0533 0.16h-2.88c-0.85333 0-0.96 0-0.96 0.64 0 0.90667 0.0533 0.96 0.74667 0.96 1.2267 0 4.32-0.16 5.92-0.16 1.6 0 4 0.16 4.8 0.16 0.53334 0 0.58667-0.10667 0.58667-0.90667 0-0.64 0-0.69333-0.58667-0.69333h-1.7067c-0.64 0-4.3733-10.773-6.56-16.853l-6.4-17.973c-0.0533-0.21333-0.21333-0.37333-0.48-0.37333-0.31999 0-0.69333 0.69333-1.0133 1.44-0.58666 1.44-1.4933 1.92-1.92 2.9867l-5.6533 13.12c-0.74666 1.7067-7.2 17.653-7.7867 17.653h-1.4933c-0.85333 0-0.96 0-0.96 0.64zm10.72-15.467c0-0.16 0.10667-0.42667 0.26667-0.8l5.2267-12.8c0.26667-0.64 0.42667-1.0133 0.53334-1.0133 0.10666 0 0.21333 0.32 0.42666 1.0133l4.4267 12.96c0.10666 0.32 0.21333 0.53333 0.21333 0.69333s-0.16 0.26667-0.69333 0.26667h-9.5467c-0.64 0-0.85334-0.10667-0.85334-0.32zm25.973-2.5067c0 0.32 0.16 0.26667 0.69334 0.26667 0.26666 0 2.3467-0.10667 2.6667-0.10667 0.74667 0 0.8 0 0.85334 0.74667 0.16 2.1867 0.37333 3.84 0.37333 15.307v7.5733c0 4.2133 0 8.5333-0.16 8.5333h-2.9333c-0.53334 0-0.64 0.21333-0.64 0.69333 0 0.58667 0 0.74667 0.69333 0.74667 1.6 0 3.84-0.10667 5.1733-0.10667 1.5467 0 4.64 0.10667 5.6533 0.10667 0.69333 0 0.69333-0.26667 0.69333-0.74667 0-0.48-0.0533-0.69333-0.69333-0.69333h-3.7333c-0.32 0-0.26667-1.5467-0.32-3.5733l-0.16-10.08c0-0.58667 0.58667-0.21333 1.28 0 1.0133 0.32 2.4 0.58667 3.52 0.58667 6.9867 0 11.147-5.44 11.147-10.827 0-5.6533-2.9867-10.08-9.12-10.08-2.24 0-4.5333 1.0667-5.76 1.9733-0.48 0.37333-0.85334 0.74667-1.0133 0.74667-0.10666 0-0.10666-0.16-0.10666-0.53333v-1.28c0-0.74667-0.16-0.74667-0.58667-0.74667-0.21333 0-3.4667 0.21333-7.04 0.32-0.16 0-0.48 0.96-0.48 1.1733zm8.16 16v-13.333c0-0.21333 0.0533-0.90667 1.76-1.76 0.8-0.37333 1.92-0.69333 3.4133-0.69333 3.9467 0 6.9333 3.36 6.9333 8.5867 0 4.2667-2.4533 9.44-7.4667 9.44-1.6533 0-4.64-0.96-4.64-2.24zm18.88-16c0 0.32 0.16 0.26667 0.69334 0.26667 0.26666 0 2.3467-0.10667 2.6667-0.10667 0.74667 0 0.8 0 0.85333 0.74667 0.16 2.1867 0.37334 3.84 0.37334 15.307v7.5733c0 4.2133 0 8.5333-0.16 8.5333h-2.9333c-0.53334 0-0.64 0.21333-0.64 0.69333 0 0.58667 0 0.74667 0.69333 0.74667 1.6 0 3.84-0.10667 5.1733-0.10667 1.5467 0 4.64 0.10667 5.6533 0.10667 0.69333 0 0.69333-0.26667 0.69333-0.74667 0-0.48-0.0533-0.69333-0.69333-0.69333h-3.7333c-0.32 0-0.26667-1.5467-0.32-3.5733l-0.16-10.08c0-0.58667 0.58666-0.21333 1.28 0 1.0133 0.32 2.4 0.58667 3.52 0.58667 6.9867 0 11.147-5.44 11.147-10.827 0-5.6533-2.9867-10.08-9.12-10.08-2.24 0-4.5333 1.0667-5.76 1.9733-0.48 0.37333-0.85333 0.74667-1.0133 0.74667-0.10667 0-0.10667-0.16-0.10667-0.53333v-1.28c0-0.74667-0.16-0.74667-0.58666-0.74667-0.21333 0-3.4667 0.21333-7.04 0.32-0.16 0-0.48 0.96-0.48 1.1733zm8.16 16v-13.333c0-0.21333 0.0533-0.90667 1.76-1.76 0.8-0.37333 1.92-0.69333 3.4133-0.69333 3.9467 0 6.9333 3.36 6.9333 8.5867 0 4.2667-2.4533 9.44-7.4667 9.44-1.6533 0-4.64-0.96-4.64-2.24zm18.613-31.627c0 0.16 0.0533 0.16 0.42667 0.16 0.21333 0 2.2933-0.21333 2.56-0.21333 0.53334 0 0.48 0.10667 0.58667 1.0133 0.42667 4.7467 0.58667 24.96 0.58667 27.573 0 1.3333 0 4.5333-0.21334 4.5333h-2.7733c-0.53333 0-0.64 0.21333-0.64 0.69333 0 0.58667 0 0.74667 0.69334 0.74667 1.6 0 3.6267-0.10667 4.96-0.10667 1.5467 0 3.2 0.10667 4.2133 0.10667 0.69334 0 0.69334-0.26667 0.69334-0.74667s-0.0533-0.69333-0.69334-0.69333h-2.08c-0.42666 0-0.42666-0.85333-0.42666-2.08 0-10.72-0.26667-15.573-0.32-31.947 0-0.64 0-0.8-0.37333-0.8-0.32 0-4.4267 0.32-6.56 0.48-0.48 0.05333-0.42667 0-0.53333 0.42667-0.0533 0.37333-0.10667 0.69333-0.10667 0.85333zm13.973 15.36c0 0.16 0.0533 0.21333 0.21333 0.21333 0.21334 0 2.5067-0.10667 2.6667-0.10667 0.53333 0 0.64 0.05333 0.69333 0.85333 0.16 3.8933 0.21334 7.68 0.21334 11.413 0 1.6 0 3.1467-0.0533 4.6933 0 0.53333 0 0.64-0.58666 0.64h-2.1867c-0.69333 0-0.74667 0.21333-0.74667 0.69333 0 0.58667 0 0.74667 0.58667 0.74667 1.0133 0 3.4133-0.10667 4.7467-0.10667 1.3333 0 3.4667 0.10667 4.48 0.10667 0.58667 0 0.58667-0.26667 0.58667-0.74667s-0.0533-0.69333-0.58667-0.69333h-1.92c-0.53333 0-0.53333-0.16-0.53333-0.64-0.16-3.04-0.16-6.0267-0.16-9.0667v-9.0667c0-0.26667-0.0533-0.32-0.37333-0.32-0.26667 0-5.0133 0.21333-6.0267 0.26667-0.64 0.05333-0.58666 0-0.8 0.42667-0.21333 0.42667-0.21333 0.53333-0.21333 0.69333zm2.7733-10.453c0 1.4933 1.0667 2.1867 2.1867 2.1867 1.4933 0 3.2533-1.1733 3.2533-2.9867 0-1.5467-1.12-2.1333-2.24-2.1333-1.28 0-3.2 1.0133-3.2 2.9333zm11.04 25.707c0 2.72 1.92 4.5333 5.2267 4.5333 2.24 0 5.0667-1.5467 6.1333-2.1867 0.42666-0.21333 0.96-0.64 1.0667-0.64 0.10667 0 0.21334 2.9867 2.1333 2.9867 0.53334 0 1.0133-0.32 1.3867-0.58667 1.1733-0.8 3.4667-2.4 3.4667-2.6133 0-0.32-0.47999-0.8-0.69333-0.8-0.16 0-1.8133 1.28-2.0267 1.28-0.96 0-1.1733-1.12-1.1733-1.6 0-1.1733 0.32-8.16 0.32-10.88 0-4.2133-1.6-6.9867-6.9867-6.9867-3.4667 0-8.1067 2.6133-8.1067 6.9867 0 0.58667 0.16 0.8 0.42667 0.8 0.21333 0 1.9733-0.85333 2.8267-1.4933 0.32-0.21333 0.37333-0.8 0.37333-1.12 0.0533-2.1333 0.21334-2.9333 1.7067-3.5733 0.53333-0.21333 1.12-0.26667 1.6533-0.26667 4.5867 0 4.64 3.68 4.64 7.4133 0 0.42667 0 0.8-0.42667 0.85333-5.28 0.90667-11.947 3.1467-11.947 7.8933zm3.7333-1.4933c0-2.5067 2.5067-3.9467 5.0133-4.7467 1.5467-0.48 3.1467-0.8 3.3067-0.8 0.26667 0 0.32 0.21333 0.32 0.58667v7.1467c0 0.26667-2.8267 1.4933-5.1733 1.4933-2.24 0-3.4667-1.9733-3.4667-3.68zm18.08-13.387c0 0.16 0 0.21333 0.16 0.21333 0.21333 0 2.7733-0.21333 2.9333-0.21333 0.53333 0 0.58667-0.05333 0.64 0.74667 0.10667 1.6533 0.10667 3.4667 0.10667 5.28 0 3.4133-0.10667 7.2-0.26667 10.347-0.0533 0.8 0 0.96-0.53333 0.96h-2.08c-0.53333 0-0.64 0.21333-0.64 0.69333 0 0.58667 0 0.74667 0.69333 0.74667 1.6 0 3.36-0.10667 4.6933-0.10667 1.5467 0 3.3067 0.10667 4.32 0.10667 0.69333 0 0.69333-0.26667 0.69333-0.74667s-0.0533-0.69333-0.69333-0.69333h-1.92c-0.69333 0-0.69333-0.16-0.69333-1.0133 0-4.3733 0.0533-8.8 0.0533-13.173 0-0.48 0.10667-0.8 0.96-1.2267 1.0667-0.53333 2.6133-1.4933 4.7467-1.4933 4.1067 0 5.12 3.0933 5.12 6.9333 0 5.6533-0.10666 8.1067-0.21333 9.3867-0.0533 0.58667-0.0533 0.58667-0.58667 0.58667h-1.9733c-0.53333 0-0.69333 0.10667-0.69333 0.74667 0 0.58667 0 0.69333 0.74666 0.69333 1.6 0 3.2-0.10667 4.5333-0.10667 1.5467 0 2.9867 0.10667 4 0.10667 0.64 0 0.64-0.26667 0.64-0.74667 0-0.64-0.10666-0.69333-0.74666-0.69333h-1.6c-0.53334 0-0.58667-0.05333-0.58667-0.64 0-0.8 0.26667-6.1333 0.26667-9.0667 0-5.2267-0.90667-9.44-7.0933-9.44-3.2533 0-5.2267 1.7067-6.8267 2.72-0.26666 0.16-0.79999 0.74667-0.79999 0.26667v-2.24c0-0.53333 0.10666-0.64-0.69334-0.58667-1.4933 0.10667-4.8533 0.32-5.6 0.37333-0.74667 0.05333-0.64 0-0.8 0.42667-0.10667 0.26667-0.26667 0.69333-0.26667 0.85333zm27.947 9.2267c0 6.0267 3.84 9.9733 10.08 9.9733 5.28 0 8.4267-3.2 8.4267-3.52s-0.16-0.42667-0.37333-0.42667c-0.42667 0-2.7733 1.6-6.4533 1.6-5.4933 0-8.2133-4.48-8.2133-8.96 0-4.2133 2.6667-9.0667 7.2-9.0667 3.36 0 3.52 2.4533 4.3733 4.8533 0.16 0.48 0.48 0.58667 0.90667 0.58667 0.48 0 1.12-0.32 1.6-0.69333 0.42667-0.32 0.53333-0.64 0.53333-1.0667 0-2.72-3.6267-5.12-7.0933-5.12-5.1733 0-10.987 3.9467-10.987 11.84zm21.707-0.26667c0 6.24 3.6267 10.507 10.187 10.507 5.3867 0 9.2267-4.6933 9.2267-5.0133 0-0.16-0.69334-0.8-0.85334-0.8s-2.6133 3.4667-6.88 3.4667c-4 0-7.9467-3.0933-7.9467-8.8 0-0.74667 0-1.92 0.26666-1.92 0.42667 0 11.36 0.26667 11.947 0.26667 0.64 0 2.88-0.21333 2.88-0.64 0-4.48-2.6667-8.48-7.9467-8.48-6.4533 0-10.88 5.0133-10.88 11.413zm4-3.8933c0.21334-2.6667 2.72-6.3467 6.24-6.3467 1.7067 0 4.9067 1.12 4.9067 6.3467 0 0.10667-0.16 0.16-2.1333 0.21333-2.6667 0.10667-8.1067 0.21333-8.3733 0.21333-0.42666 0-0.64-0.10667-0.64-0.42667z" aria-label="Archiver Appliance"/>
  <path d="m589.86 65.549c0 1.0133 0.58667 1.84 1.7333 1.84 0.98667 0 1.6267-0.69333 2.56-1.6533 1.8667-1.9467 3.3333-4.64 3.3333-4.64s-1.52 4.56-1.52 5.68c0 0.42667 0.29333 0.64 0.72 0.64 1.1467 0 3.3867-2.4533 3.3867-2.56 0-0.21333-0.18667-0.37333-0.29333-0.37333-0.08 0-1.3067 1.4933-1.7067 1.4933-0.26667 0-0.37334-0.26667-0.37334-0.53333 0-1.1733 2.16-8.0533 2.16-8.4267 0-0.10667-0.29334-0.16-0.56-0.13333-0.37334 0.05333-0.88001 0.08-0.96001 0.29333 0 0.05333-0.32 1.1733-0.4 1.1733-0.13333 0-0.29333-0.4-0.53333-0.74667-0.34667-0.50667-0.88-0.8-1.4933-0.8-4 0-6.0533 5.6533-6.0533 8.7467zm1.84-0.98667c0-2.16 1.8667-6.6933 3.68-6.6933 0.8 0 2.1867 0.53333 2.1867 1.5467 0 0.13333-0.08 0.93334-0.4 1.44-1.3333 2.1867-3.8133 5.12-4.7733 5.12-0.61333 0-0.69333-0.82667-0.69333-1.4133zm9.7067-5.2c0 0.13333 0.10667 0.29333 0.24 0.29333s1.0933-1.36 1.7867-1.36c0.34667 0 0.34667 0.66667 0.34667 1.0133 0 1.52-1.28 7.6-1.28 7.8133 0 0.08 0.0533 0.10667 0.26666 0.10667 0.24 0 1.36-0.13333 1.3867-0.29333 0.32-1.44 0.48-2.3733 0.88-4.0267 0.08-0.29333 0.13334-0.58667 0.29334-1.0133 0.48-1.2533 1.04-2.5867 1.52-3.3333 0.18666-0.29333 0.4-0.45333 0.66667-0.45333 0.56 0 0.88 0.48 1.4667 0.48 0.42667 0 0.58667-0.53333 0.58667-0.98667 0-0.61333-0.66667-0.96-1.2533-0.96-0.85334 0-1.52 0.72-1.92 1.4667-0.69333 1.2533-1.2533 2.9333-1.6533 3.9733l-0.10667-0.02667c0.24-1.4133 0.72-4.16 0.72-4.6933 0-0.26667-0.0533-0.53333-0.48-0.53333-1.1467 0-3.4667 2.24-3.4667 2.5333zm8.56 4.3467c0 1.7333 0.8 3.6533 3.6533 3.6533 2.64 0 5.5467-2.8533 5.5467-3.0133s-0.21333-0.37333-0.32-0.37333c-0.18667 0-2 2.08-4.32 2.08-2.8 0-2.8267-2.08-2.8267-2.7733 0-1.28 0.45333-2.88 1.2533-4.08 0.69333-1.0667 1.8133-1.7867 2.8267-1.7867 0.90667 0 1.2533 0.66667 1.2533 1.28 0 0.21333-0.0267 0.42667-0.0267 0.64 0 0.50667 0.16 0.98667 0.58667 0.98667 0.69333 0 1.1467-0.58667 1.1467-1.3067 0-0.64-0.24-1.12-0.58666-1.4933-0.50667-0.56-1.3067-0.82667-2.2933-0.82667-2.5333 0-5.8933 2.6667-5.8933 7.0133zm10.72 3.2533c0 0.13333 0.0533 0.21333 0.21334 0.21333 0.08 0 1.4933-0.05333 1.5467-0.29333l0.53333-2.1867c0.24-0.90667 0.85333-1.8933 1.44-2.88 1.0933-1.8133 2.4533-3.92 3.76-3.92 0.58666 0 0.90666 0.45333 0.90666 1.04 0 1.3867-1.9467 6.2933-1.9467 7.1733 0 0.61333 0.48 1.0133 1.0933 1.0133 2.0267 0 4.1333-3.12 4.1333-3.2533 0-0.05333-0.24-0.26667-0.32-0.26667-0.10667 0-1.84 2.32-2.5333 2.32-0.37333 0-0.56-0.29333-0.56-0.58667 0-0.77334 1.7867-5.4133 1.7867-7.1467 0-0.90667-0.72-1.28-1.5733-1.28-1.5733 0-2.5333 0.88-3.3067 1.8133-1.8133 2.1867-3.0667 5.12-3.0667 5.12 0.72-3.5733 2.3467-11.733 2.48-14.32 0-0.26667 0-0.4-0.16-0.4-0.64 0-3.04 0.50667-4.1333 0.90667-0.10667 0.05333-0.18667 0.21333-0.18667 0.42667 0 0.16 0.0267 0.37333 0.08 0.37333 0.10667 0 1.8667-0.72 2.32-0.72 0.0533 0 0.13334 0.21333 0.10667 0.50667-0.90667 9.3067-2.6133 16.053-2.6133 16.347zm12.48-7.36c0 0.13333 0.18667 0.34667 0.32 0.34667s1.4933-1.5733 2.1867-1.5733c0.26667 0 0.32 0.21333 0.32 0.48 0 1.6267-1.8933 6.5867-1.8933 7.9467 0 0.4 0.37334 0.48 0.64001 0.48 0.82666 0 4.0267-2.64 4.0267-3.0133 0-0.08-0.21334-0.32-0.32-0.32-0.08 0-1.6 1.7067-2.1067 1.7067-0.34667 0-0.34667-0.26667-0.34667-0.53333 0-0.74667 1.7333-6.3733 1.7333-7.6267 0-0.45333-0.26667-0.58667-0.53334-0.58667-0.98667 0-4.0267 2.5333-4.0267 2.6933zm2.7467-7.12c0 0.56 0.4 1.28 1.1733 1.28 0.64001 0 1.0933-0.53333 1.0933-1.2267 0-0.56-0.4-1.28-1.1733-1.28-0.69333 0-1.0933 0.53333-1.0933 1.2267zm4.0534 6.6667c0 0.10667 0.26667 0.34667 0.45334 0.34667 0.10666 0 1.2-1.7067 2.1067-1.7067 0.10666 0 0.45333 0.10667 0.64 0.21333 0.24 0.16 0.26666 0.34667 0.26666 0.61333 0 1.68-0.53333 4.8533-0.53333 5.92 0 1.2533 0.29333 1.5733 1.04 2.16 0.26667 0.21333 0.77334 0.56 1.0933 0.56 0.29333 0 0.42666-0.16 0.64-0.50667 0.16-0.26667 0.42666-0.66667 0.61333-0.90667 2.1067-2.6933 4.56-5.6533 4.56-8.3467 0-0.93334-0.48-1.0667-1.0667-1.0667-0.74667 0-2.6133 0.45333-2.6133 0.61333 0 0.29333 0.13334 0.42667 0.16 0.42667 0.08 0 0.93334-0.24 1.5733-0.24 0.4 0 0.66667 0.21333 0.66667 1.0667 0 2.08-1.5733 4.1867-2.72 5.7333-0.32 0.42667-0.64 0.88-0.82667 1.0933-0.21333 0.26667-0.48 0.29333-0.61333 0.29333s-0.90667-0.48-0.90667-0.96c0-1.0133 0.66667-4.48 0.66667-6.32 0-0.58667-0.24-0.74667-1.04-1.2-0.26667-0.16-0.82667-0.26667-1.12-0.26667-0.96 0-3.04 2.1867-3.04 2.48zm12.213 5.1733c0 2.0533 1.5467 2.9333 3.36 2.9333 3.1733 0 5.84-2.9067 5.84-3.0133 0-0.16-0.21333-0.37333-0.34666-0.37333-0.18667 0-2.0267 2.32-4.5333 2.32-1.4933 0-2.56-0.61333-2.56-2.3733 0-0.72 0.08-1.2267 0.21333-1.2267 1.0133 0 2.4533-0.16 3.76-0.64 1.7067-0.64 3.28-1.8667 3.28-3.4933 0-1.4133-1.36-1.76-2.48-1.76-3.52 0-6.5333 3.6-6.5333 7.6267zm2.16-2.5333c0-0.08 0.21333-0.8 0.37333-1.2 0.53333-1.4133 1.5467-3.2533 3.4133-3.2533 0.77333 0 1.3333 0.42667 1.3333 1.0933 0 2.24-2.3467 3.5467-4.8533 3.5467-0.21333 0-0.26666-0.08-0.26666-0.18667zm13.307-1.4667c0 0.4 0.24 0.45333 0.32 0.45333 0.13333 0 1.8133-2 2.5067-2 0.26667 0 0.37333 0.18667 0.37333 0.45333 0 1.7867-0.85333 6.48-1.2 7.92-0.0267 0.13333 0.0267 0.26667 0.13334 0.26667 0.18666 0 0.82666-0.18667 1.3067-0.37333 0.18667-0.08 0.24-0.34667 0.29334-0.53333 0.16-0.56 0.61333-2.1867 1.0933-3.1467 1.1467-2.3467 2.0533-3.4667 2.88-4.4533 0.18666-0.24 0.61333-0.66667 0.98666-0.66667 0.37334 0 0.56 0.4 0.56 0.98667 0 3.0667-1.5467 7.0933-1.5467 7.7067 0 0.13333 0.08 0.18667 0.21333 0.18667 0.32 0 0.69333-0.02667 1.12-0.08 0.18667-0.02667 0.32-0.10667 0.37333-0.32 0.58667-2.0267 1.3067-3.3333 2.4-5.0133 1.1733-1.8133 2.56-3.5467 3.3333-3.5467 0.37334 0 0.56001 0.32 0.56001 0.58667 0 1.6267-2.08 6.64-2.08 7.7067 0 0.42667 0.4 0.77334 0.93334 0.77334 1.4667 0 4.3467-3.12 4.3467-3.28 0-0.08-0.21333-0.32-0.32-0.32s-1.9467 2.1867-2.48 2.1867c-0.4 0-0.48-0.42667-0.48-0.64 0-1.04 1.9467-5.8667 1.9467-7.2533 0-0.45333-0.16-0.90667-1.36-0.90667-2.8267 0-5.7067 6.0533-6.7467 7.9467 0 0 1.52-4.48 1.52-6.6933 0-0.61333-0.29333-1.2533-0.90667-1.2533-2.16 0-4.24 2.9333-6 6.9867 0.37334-2.24 0.93334-4.6933 0.93334-6.32 0-0.45333-0.21333-0.50667-0.48-0.50667-1.3067 0-4.5333 2.88-4.5333 3.1467zm19.973-0.72c0 0.13333 0.18667 0.34667 0.32 0.34667s1.4933-1.5733 2.1867-1.5733c0.26667 0 0.32 0.21333 0.32 0.48 0 1.6267-1.8933 6.5867-1.8933 7.9467 0 0.4 0.37334 0.48 0.64 0.48 0.82667 0 4.0267-2.64 4.0267-3.0133 0-0.08-0.21334-0.32-0.32-0.32-0.08 0-1.6 1.7067-2.1067 1.7067-0.34667 0-0.34667-0.26667-0.34667-0.53333 0-0.74667 1.7333-6.3733 1.7333-7.6267 0-0.45333-0.26666-0.58667-0.53333-0.58667-0.98667 0-4.0267 2.5333-4.0267 2.6933zm2.7467-7.12c0 0.56 0.4 1.28 1.1733 1.28 0.64 0 1.0933-0.53333 1.0933-1.2267 0-0.56-0.4-1.28-1.1733-1.28-0.69333 0-1.0933 0.53333-1.0933 1.2267zm5.2534 13.893c0 0.74667 0.37333 1.0133 0.77333 1.0133 1.8133 0 4.6133-3.28 4.6133-3.4133 0-0.05333-0.32-0.34667-0.42666-0.34667-0.10667 0-1.92 2.24-2.6667 2.24-0.13334 0-0.37334-0.08-0.37334-0.56 0-0.24 2.6667-15.493 2.6667-16.053 0-0.13333-0.08-0.24-0.26666-0.24-0.13334 0-1.5467 0.45333-3.9467 0.98667-0.18666 0.05333-0.24 0.05333-0.26666 0.34667-0.0533 0.45333-0.0267 0.53333 0.08 0.53333 0.10666 0 1.3867-0.32 1.9733-0.48 0.37334-0.10667 0.42667 0.05333 0.37334 0.4-0.66667 5.6-2.5333 15.093-2.5333 15.573zm7.2533 0c0 0.74667 0.37333 1.0133 0.77333 1.0133 1.8133 0 4.6133-3.28 4.6133-3.4133 0-0.05333-0.32-0.34667-0.42667-0.34667-0.10666 0-1.92 2.24-2.6667 2.24-0.13333 0-0.37333-0.08-0.37333-0.56 0-0.24 2.6667-15.493 2.6667-16.053 0-0.13333-0.08-0.24-0.26667-0.24-0.13333 0-1.5467 0.45333-3.9467 0.98667-0.18667 0.05333-0.24 0.05333-0.26667 0.34667-0.0533 0.45333-0.0267 0.53333 0.08 0.53333 0.10667 0 1.3867-0.32 1.9733-0.48 0.37333-0.10667 0.42667 0.05333 0.37333 0.4-0.66666 5.6-2.5333 15.093-2.5333 15.573zm6.4533-6.7733c0 0.13333 0.18667 0.34667 0.32 0.34667 0.13334 0 1.4933-1.5733 2.1867-1.5733 0.26667 0 0.32 0.21333 0.32 0.48 0 1.6267-1.8933 6.5867-1.8933 7.9467 0 0.4 0.37333 0.48 0.64 0.48 0.82666 0 4.0267-2.64 4.0267-3.0133 0-0.08-0.21333-0.32-0.32-0.32-0.08 0-1.6 1.7067-2.1067 1.7067-0.34667 0-0.34667-0.26667-0.34667-0.53333 0-0.74667 1.7333-6.3733 1.7333-7.6267 0-0.45333-0.26667-0.58667-0.53334-0.58667-0.98666 0-4.0267 2.5333-4.0267 2.6933zm2.7467-7.12c0 0.56 0.4 1.28 1.1733 1.28 0.64 0 1.0933-0.53333 1.0933-1.2267 0-0.56-0.4-1.28-1.1733-1.28-0.69334 0-1.0933 0.53333-1.0933 1.2267zm4.4534 10.96c0 2.0267 1.2267 3.8933 3.7333 3.8933 3.36 0 6.1067-3.28 6.1067-6.56 0-1.6533-0.85333-4.24-3.68-4.24-3.5467 0-6.16 3.0133-6.16 6.9067zm1.6533-0.21333c0-2.3467 2.08-6.08 4.2133-6.08 1.9467 0 2.2933 1.6533 2.2933 2.56 0 2.4-1.76 6.9867-4.3733 6.9867-2.08 0-2.1333-2.3467-2.1333-3.4667zm9.2534-3.76c0 0.26667 0.29333 0.45333 0.37333 0.45333 0.13333 0 1.84-1.7067 2.48-1.7067 0.26667 0 0.34667 0.21333 0.34667 0.48 0 1.7867-1.2533 6.88-1.6 8.32-0.0267 0.13333 0.0267 0.26667 0.13333 0.26667 0.18667 0 0.74667-0.05333 1.28-0.10667 0.26667-0.02667 0.34667-0.50667 0.40001-0.69333 0.16-0.56 0.61333-2.08 1.1733-2.9867 1.3067-2.1067 3.76-5.5467 4.7733-5.5467 0.37333 0 0.58667 0.37333 0.58667 0.77333 0 1.6267-2.1333 5.76-2.1333 7.28 0 0.64 0.32 1.0933 0.85334 1.0933 1.9467 0 4.2667-2.8267 4.2667-2.9867 0-0.08-0.21334-0.29333-0.32-0.29333-0.10667 0-1.6 1.9733-2.4 1.9733-0.4 0-0.50666-0.32-0.50666-0.53333 0-0.74667 2.0533-5.8667 2.0533-7.2533 0-0.45333-0.16-1.1733-1.36-1.1733-2.1067 0-4.2933 2.9067-6.6933 7.1467 0.58667-2.24 1.44-4.96 1.44-6.5867 0-0.42667-0.32-0.56-0.56-0.56-1.6 0-4.5867 2.5867-4.5867 2.64zm13.867 6.0267c0 0.82667 1.7867 1.76 3.4133 1.76 1.92 0 3.4933-1.4133 3.4933-2.9867 0-2.9067-3.8667-3.0667-3.8667-5.6 0-1.3067 1.04-1.68 1.84-1.68 0.45334 0 0.64001 0.34667 0.85334 0.72 0.26667 0.48 0.64 0.93333 1.28 0.93333 0.26667 0 0.48-0.16 0.48-0.45333s-0.24-1.7067-2.5867-1.7067c-1.8933 0-3.4933 1.4133-3.4933 3.0933 0 2.2133 3.84 3.3867 3.84 5.04 0 1.2-0.85334 1.9467-1.8933 1.9467-0.66666 0-0.93333-0.45333-1.5733-1.0933-0.34667-0.34667-0.56-0.64-1.1467-0.64-0.21333 0-0.64 0.24-0.64 0.66667zm14.427-2.0533c0 2.0267 1.2267 3.8933 3.7333 3.8933 3.36 0 6.1067-3.28 6.1067-6.56 0-1.6533-0.85334-4.24-3.68-4.24-3.5467 0-6.16 3.0133-6.16 6.9067zm1.6533-0.21333c0-2.3467 2.08-6.08 4.2133-6.08 1.9467 0 2.2933 1.6533 2.2933 2.56 0 2.4-1.76 6.9867-4.3733 6.9867-2.08 0-2.1333-2.3467-2.1333-3.4667zm5.52 10.293c0 0.37333 0.93333 0.96 1.8133 0.96 1.0133 0 1.84-0.69333 2.4267-1.12 1.7333-1.3067 2.4267-4.2933 2.5067-4.8 0.50667-3.0133 1.3333-9.1467 1.52-10.4 0.0533-0.29333 0.0267-0.29333 0.26666-0.29333h2.1333c0.13333 0 0.16-0.08 0.18666-0.24 0.0267-0.08 0.0533-0.26667 0.0533-0.37333 0-0.02667-0.0267-0.05333-0.13334-0.05333h-2.1867c-0.10667 0-0.24-0.05333-0.21334-0.16 0.18667-1.36 0.82667-7.0133 2.9333-7.0133 0.90667 0 1.4667 0.98667 2.16 0.98667 0.53334 0 1.44-0.61333 1.44-1.0933 0-0.37333-1.0667-0.96-1.9467-0.96-0.85333 0-1.7867 0.37333-2.4267 0.74667-1.5733 0.90667-2.3733 2.4267-2.6933 2.9867-0.77334 1.3867-1.0667 3.6-1.12 4.1867-0.0267 0.32-0.0267 0.32-0.26667 0.32h-1.9467c-0.13333 0-0.16 0.02667-0.18667 0.16-0.0267 0.10667-0.0533 0.24-0.0533 0.34667 0 0.16 0.0267 0.16 0.18667 0.16h2.0267c0.13333 0 0.10666 0.18667 0.10666 0.29333 0 0.16-0.8 6.5333-1.4133 10.4-0.21334 1.3333-0.48 4.5067-1.7067 4.5067-0.90667 0-1.4667-0.64-2.16-0.64-0.53334 0-1.3067 0.61333-1.3067 1.0933zm16.773-6.8c0 0.45333 0.0267 0.48 0.37333 0.48 0.61334 0 1.9467-0.08 2.7467-0.08s2.0533 0.08 2.6667 0.08c0.26667 0 0.29333-0.05333 0.29333-0.45333 0-0.32 0-0.34667-0.29333-0.34667h-1.7333c-0.16 0-0.24-0.08-0.21334-0.24 0.13334-1.1733 0.8-6.48 0.88-6.9067 0.0533-0.21333 0.16-0.24 0.48-0.24 0.26667 0 1.3067 0.05333 2.0267 0.05333 3.0933 0 6.5067-1.12 6.5067-5.1733 0-2.6133-1.9733-4.56-5.6-4.56-0.48 0-2.32 0.13333-3.12 0.13333-0.93334 0-2.72-0.08-2.9067-0.08-0.21334 0-0.32 0.05333-0.32 0.37333 0 0.4 0.18666 0.4 0.50666 0.4h1.4667c0.0267 0 0.08 0.08 0.08 0.26667 0 0.8-2.2133 15.973-2.2133 15.973h-1.1467c-0.42667 0-0.48 0-0.48 0.32zm4.8533-8.5333c0-0.10667 0.0267-0.26667 0.0533-0.50667 0.24-1.76 1.0133-6.9067 1.12-7.5733 0.0267-0.10667 0.90667-0.13333 1.2-0.13333 2.9067 0 4.4533 1.44 4.4533 4.08 0 3.2533-3.0933 4.4533-6 4.4533-0.56 0-0.82666-0.02667-0.82666-0.32zm10.347-8.3733c0 0.4 0.16 0.4 0.48 0.4h1.0667c0.26667 0 2.08 11.467 2.6667 15.733 0.18666 1.3867 0.24 1.6267 0.53333 1.6267 0.34667 0 0.82667-0.64 0.98667-0.88 0.69333-1.0667 1.2-1.52 1.44-1.92l8.3734-14.373c0.10666-0.16 0.08-0.18667 0.64-0.18667 0.42666 0 0.50666 0 0.50666-0.32 0-0.45333-0.0533-0.48-0.4-0.48-0.26666 0-1.1467 0.08-1.5467 0.08-1.44 0-2.32-0.08-2.64-0.08-0.34667 0-0.45333 0-0.45333 0.4 0 0.4 0.16 0.4 0.48 0.4h1.7867c0.21333 0 0.37333 0 0.16 0.42667l-3.1467 6c-2.08 3.9733-4.6133 8.32-4.7467 8.32-0.18666 0-2.1333-13.76-2.1333-14.613 0-0.08 0.08-0.13333 0.10666-0.13333h1.4667c0.42667 0 0.48 0 0.48-0.32 0-0.45333-0.0267-0.48-0.37333-0.48-0.61333 0-2 0.08-2.8 0.08s-2.0267-0.08-2.4533-0.08c-0.34667 0-0.48 0-0.48 0.4zm15.093 15.68c0 0.82667 1.7867 1.76 3.4133 1.76 1.92 0 3.4933-1.4133 3.4933-2.9867 0-2.9067-3.8667-3.0667-3.8667-5.6 0-1.3067 1.04-1.68 1.84-1.68 0.45333 0 0.64 0.34667 0.85333 0.72 0.26667 0.48 0.64 0.93333 1.28 0.93333 0.26667 0 0.48001-0.16 0.48001-0.45333s-0.24-1.7067-2.5867-1.7067c-1.8933 0-3.4933 1.4133-3.4933 3.0933 0 2.2133 3.84 3.3867 3.84 5.04 0 1.2-0.85333 1.9467-1.8933 1.9467-0.66667 0-0.93334-0.45333-1.5733-1.0933-0.34667-0.34667-0.56-0.64-1.1467-0.64-0.21333 0-0.64 0.24-0.64 0.66667z" aria-label="archive millions of PVs"/>
  <g transform="matrix(.053625 0 0 .053625 959.18 78.364)">
   <g fill-rule="evenodd">
    <path d="m638.27 186.8 130.34 225.79-59.901 0.56192-34.798-60.66-35.047 60.336-29.763-0.0117-15.244-26.336 49.931-85.856-35.445-61.681z" fill="url(#linearGradient4328)"/>
    <path d="m685.32 93.797-130.37 225.77-30.437-51.595 35.134-60.467-69.776-0.18333-14.871-25.781 15.185-26.369 99.319 0.31361 35.695-61.536z" fill="#fff"/>
    <path d="m847.06 175.35-130.34-225.79 59.901-0.56192 34.798 60.66 35.047-60.336 29.763 0.01173 15.244 26.336-49.931 85.856 35.445 61.681z" fill="#fff"/>
   </g>
   <g fill="#fff" fill-rule="evenodd" shape-rendering="auto">
    <path d="m638.27 186.8 130.34 225.79-59.901 0.56192-34.798-60.66-35.047 60.336-29.763-0.0117-15.244-26.336 49.931-85.856-35.445-61.681z" color="#000000" color-rendering="auto" image-rendering="auto" solid-color="#000000" style="isolation:auto;mix-blend-mode:normal"/>
    <path d="m789.47 87.354-260.71-0.0128 29.464-52.157 69.933 0.19386-34.729-60.52 14.891-25.769 30.429-0.03349 49.388 86.17 71.139 0.14427z" color="#000000" color-rendering="auto" image-rendering="auto" solid-color="#000000" style="isolation:auto;mix-blend-mode:normal"/>
    <path d="m799.72 268.32 130.37-225.77 30.437 51.595-35.134 60.467 69.776 0.18333 14.871 25.781-15.186 26.369-99.319-0.3136-35.695 61.536z" color="#000000" color-rendering="auto" image-rendering="auto" solid-color="#000000" style="isolation:auto;mix-blend-mode:normal"/>
   </g>
   <path d="m973.8 412.69v-82.643h-35.438v-38.358h57.256v-16.92h-246.73v-54.357h32.998v-82.643h-83.557v82.643h35.438v54.357h-37.146l9.7686 16.92h109.47v38.358h-32.998v82.643h83.557v-82.643h-35.438v-38.358h92.254v38.358h-32.998v82.643z" fill="#fff" stroke-width="17.229" style="paint-order:fill markers stroke"/>
  </g>
 </g>
</svg>
